<svg width="182" height="182" viewBox="0 0 182 182" fill="none" xmlns="http://www.w3.org/2000/svg">
<g clip-path="url(#clip0_31_84)">
<path d="M159.26 0H22.74C10.181 0 0 10.181 0 22.74V159.26C0 171.819 10.181 182 22.74 182H159.26C171.819 182 182 171.819 182 159.26V22.74C182 10.181 171.819 0 159.26 0Z" fill="#EF5350"/>
<path fill-rule="evenodd" clip-rule="evenodd" d="M69.4462 49.2656C69.168 49.1275 68.8833 49.003 68.5931 48.8923C67.8894 48.5953 67.1568 48.372 66.4071 48.2259C56.8899 46.4664 46.8928 53.0511 40.0149 58.8894C34.1233 63.8746 28.8181 69.6862 24.0195 75.7378C23.0828 76.9599 22.6642 78.5014 22.8542 80.0294C23.0441 81.5575 23.8274 82.9495 25.0349 83.905C26.2424 84.8605 27.7773 85.3028 29.3081 85.1364C30.8389 84.9701 32.2428 84.2083 33.2168 83.0157C35.9361 79.6033 38.7619 76.271 41.801 73.1519L48.2791 66.5405L46.413 75.6045C45.6603 79.0991 45.0379 82.6205 44.5469 86.1614C43.7623 92.8495 43.5749 99.5942 43.987 106.316L44.227 115.433C44.227 117.379 44.3069 119.298 44.227 121.218L44.2003 121.671L34.7097 146.677C34.1447 148.496 34.2937 150.462 35.1264 152.175C35.9591 153.888 37.413 155.219 39.1924 155.898C40.9718 156.577 42.9431 156.553 44.7053 155.831C46.4676 155.108 47.8884 153.742 48.679 152.009L58.5694 125.883C58.8383 125.183 59.0001 124.446 59.0493 123.697L59.849 110.208L68.8064 124.177L76.3509 151.022C76.8749 152.932 78.1338 154.557 79.8523 155.541C81.5708 156.525 83.6092 156.789 85.5215 156.274C87.4373 155.751 89.0667 154.487 90.0515 152.763C91.0363 151.038 91.2959 148.993 90.7733 147.077L82.909 119.112C82.7014 118.385 82.3869 117.693 81.9759 117.059L69.7928 98.0779L70.2727 96.825C70.4294 96.3903 70.5542 95.9448 70.6459 95.492L75.3912 72.5387L78.9901 76.4309C80.4563 78.0305 81.9759 79.55 83.5754 81.0163C87.5742 84.6685 91.9463 87.8942 96.4783 90.8534C99.6774 92.9328 104.663 90.8267 105.409 87.0945C105.646 85.9469 105.534 84.7546 105.088 83.6712C104.641 82.5878 103.88 81.6631 102.903 81.0163C98.8915 78.447 95.0937 75.5585 91.5464 72.3788C88.9522 69.9738 86.5292 67.3905 84.2952 64.6477C83.5251 63.7106 82.7608 62.7686 82.0026 61.8219C79.5459 58.7075 76.976 55.6842 74.2981 52.7579L73.3917 51.9581C72.165 50.9324 70.8336 50.0389 69.4196 49.2922L69.4462 49.2656Z" fill="#FFFFFE"/>
<path fill-rule="evenodd" clip-rule="evenodd" d="M81.7893 37.0292V36.5226C81.7957 34.2521 81.123 32.0314 79.8576 30.1461C78.5922 28.2608 76.7919 26.7971 74.6881 25.9429C72.5843 25.0888 70.2731 24.8833 68.0516 25.353C65.8301 25.8226 63.7998 26.9458 62.2217 28.5783C60.6096 30.1784 59.513 32.2242 59.073 34.4525C58.6331 36.6809 58.8698 38.9899 59.7527 41.0826C60.6357 43.1754 62.1245 44.9561 64.0277 46.1958C65.931 47.4355 68.1615 48.0775 70.4326 48.0393H70.9391C73.8014 47.9065 76.5083 46.6992 78.5196 44.6583C80.5308 42.6174 81.6984 39.8931 81.7893 37.0292Z" fill="#FFFFFE"/>
<path d="M159.233 41.9344C159.233 43.5799 158.909 45.2092 158.279 46.7293C157.65 48.2495 156.727 49.6308 155.563 50.7942C154.4 51.9577 153.019 52.8807 151.498 53.5103C149.978 54.14 148.349 54.4641 146.703 54.4641C144.214 54.4841 141.776 53.7607 139.701 52.3866C137.625 51.0125 136.007 49.0502 135.054 46.7509C134.1 44.4517 133.855 41.9202 134.349 39.4806C134.843 37.041 136.053 34.8044 137.826 33.057C139.579 31.2976 141.814 30.0986 144.249 29.6122C146.685 29.1258 149.209 29.374 151.503 30.3252C153.797 31.2765 155.757 32.8879 157.133 34.9549C158.509 37.0219 159.24 39.4512 159.233 41.9344Z" fill="#FFFFFE"/>
<path fill-rule="evenodd" clip-rule="evenodd" d="M139.319 149.769C139.319 154.141 142.758 156.594 146.864 156.807C151.342 157.021 155.101 154.541 155.101 149.769V116.686C156.521 114.874 157.299 112.643 157.314 110.341V66.967C157.314 61.3953 153.768 56.7833 148.17 56.7833C143.318 56.7833 140.599 59.2893 137.96 62.7816L124.897 80.0298L124.364 80.3497C121.271 82.0826 112.714 86.3213 111.674 90.0536C111.468 90.7975 111.41 91.5749 111.505 92.341C111.6 93.1072 111.845 93.8471 112.227 94.5183C112.608 95.1895 113.118 95.7789 113.728 96.2524C114.338 96.726 115.035 97.0746 115.779 97.2781C119.645 98.3711 128.869 92.053 131.641 89.6804L137.106 84.9617V110.341C137.107 112.335 137.701 114.284 138.813 115.939L139.346 116.686V149.743L139.319 149.769Z" fill="#FFFFFE"/>
</g>
<defs>
<clipPath id="clip0_31_84">
<rect width="182" height="182" fill="white"/>
</clipPath>
</defs>
</svg>
