<svg width="208" height="208" viewBox="0 0 208 208" fill="none" xmlns="http://www.w3.org/2000/svg">
<path d="M203.333 26V160.333C203.333 162.632 202.42 164.836 200.795 166.462C199.17 168.087 196.965 169 194.667 169H12.6667C10.3681 169 8.16372 168.087 6.53841 166.462C4.91309 164.836 4 162.632 4 160.333V39H69L77.6667 26H203.333Z" fill="#DAD7E5"/>
<path d="M203.333 26V160.333H30C26.5522 160.333 23.2456 158.964 20.8076 156.526C18.3696 154.088 17 150.781 17 147.333V39H69L77.6667 26H203.333Z" fill="#EDEBF2"/>
<path d="M203.333 13V26H77.6667C73.9833 31.46 75.89 28.6 69 39H4V13C4 10.7015 4.91309 8.4971 6.53841 6.87178C8.16372 5.24647 10.3681 4.33337 12.6667 4.33337H194.667C196.965 4.33337 199.17 5.24647 200.795 6.87178C202.42 8.4971 203.333 10.7015 203.333 13Z" fill="#6FABE6"/>
<path d="M203.333 13V26H77.6667L74.7633 30.3334H30C26.5522 30.3334 23.2456 28.9637 20.8076 26.5258C18.3696 24.0878 17 20.7812 17 17.3334V4.33337H194.667C196.965 4.33337 199.17 5.24647 200.795 6.87178C202.42 8.4971 203.333 10.7015 203.333 13Z" fill="#82BCF4"/>
<path d="M25.6667 60.6667H69.0001V104H25.6667V60.6667Z" fill="#7C7D7D"/>
<path d="M68.9999 60.6667C68.9999 97.7168 68.5666 95.3334 68.9999 95.3334C59.8057 95.3334 50.9881 91.681 44.4869 85.1798C37.9856 78.6785 34.3333 69.8609 34.3333 60.6667H68.9999Z" fill="#919191"/>
<path d="M181.667 73.6667H90.6666C89.5173 73.6667 88.4151 73.2101 87.6025 72.3975C86.7898 71.5848 86.3333 70.4826 86.3333 69.3333C86.3333 68.1841 86.7898 67.0819 87.6025 66.2692C88.4151 65.4565 89.5173 65 90.6666 65H181.667C182.816 65 183.918 65.4565 184.731 66.2692C185.543 67.0819 186 68.1841 186 69.3333C186 70.4826 185.543 71.5848 184.731 72.3975C183.918 73.2101 182.816 73.6667 181.667 73.6667ZM181.667 95.3333H90.6666C89.5173 95.3333 88.4151 94.8768 87.6025 94.0641C86.7898 93.2515 86.3333 92.1493 86.3333 91C86.3333 89.8507 86.7898 88.7485 87.6025 87.9359C88.4151 87.1232 89.5173 86.6667 90.6666 86.6667H181.667C182.816 86.6667 183.918 87.1232 184.731 87.9359C185.543 88.7485 186 89.8507 186 91C186 92.1493 185.543 93.2515 184.731 94.0641C183.918 94.8768 182.816 95.3333 181.667 95.3333ZM81.9999 130H25.6666C24.5173 130 23.4151 129.543 22.6025 128.731C21.7898 127.918 21.3333 126.816 21.3333 125.667C21.3333 124.517 21.7898 123.415 22.6025 122.603C23.4151 121.79 24.5173 121.333 25.6666 121.333H81.9999C83.1492 121.333 84.2514 121.79 85.0641 122.603C85.8767 123.415 86.3333 124.517 86.3333 125.667C86.3333 126.816 85.8767 127.918 85.0641 128.731C84.2514 129.543 83.1492 130 81.9999 130ZM68.9999 151.667H25.6666C24.5173 151.667 23.4151 151.21 22.6025 150.397C21.7898 149.585 21.3333 148.483 21.3333 147.333C21.3333 146.184 21.7898 145.082 22.6025 144.269C23.4151 143.457 24.5173 143 25.6666 143H68.9999C70.1492 143 71.2514 143.457 72.0641 144.269C72.8767 145.082 73.3333 146.184 73.3333 147.333C73.3333 148.483 72.8767 149.585 72.0641 150.397C71.2514 151.21 70.1492 151.667 68.9999 151.667Z" fill="#C6C3D8"/>
<path d="M194.667 195C194.66 196.709 194.147 198.377 193.195 199.796C192.242 201.215 190.891 202.32 189.312 202.973C187.733 203.626 185.996 203.797 184.319 203.466C182.643 203.134 181.102 202.315 179.89 201.11L159.09 180.31L171.31 168.09C193.887 190.667 194.667 190.407 194.667 195Z" fill="#7C7D7D"/>
<path d="M193.453 190.667C192.785 191.804 191.866 192.774 190.766 193.503C189.666 194.232 188.414 194.699 187.106 194.871C185.798 195.042 184.468 194.913 183.217 194.492C181.967 194.071 180.829 193.371 179.89 192.443L163.423 175.977L171.31 168.09C193.887 190.667 192.76 189.323 193.453 190.667Z" fill="#919191"/>
<path d="M21.3334 26.0001C20.6835 26.0132 20.0389 25.88 19.4475 25.6102C18.8561 25.3405 18.3329 24.9411 17.9167 24.4418C17.5006 23.9424 17.2021 23.3558 17.0434 22.7254C16.8848 22.095 16.8699 21.437 17.0001 20.8001C17.1533 20.0293 17.5133 19.3147 18.0414 18.7328C18.5695 18.1509 19.246 17.7236 19.9983 17.4966C20.7506 17.2695 21.5505 17.2513 22.3124 17.444C23.0743 17.6366 23.7694 18.0327 24.3234 18.5901C24.9294 19.191 25.3445 19.9574 25.5166 20.7933C25.6887 21.6292 25.6102 22.4973 25.2908 23.2887C24.9715 24.0801 24.4256 24.7596 23.7215 25.2419C23.0175 25.7243 22.1867 25.988 21.3334 26.0001Z" fill="#F26674"/>
<path d="M38.6666 26C37.5173 26 36.4151 25.5435 35.6025 24.7308C34.7898 23.9182 34.3333 22.816 34.3333 21.6667C34.3333 20.8097 34.5874 19.9719 35.0636 19.2592C35.5397 18.5466 36.2165 17.9912 37.0083 17.6632C37.8001 17.3353 38.6714 17.2494 39.512 17.4166C40.3526 17.5838 41.1247 17.9966 41.7307 18.6026C42.3367 19.2086 42.7495 19.9807 42.9167 20.8213C43.0839 21.6619 42.998 22.5332 42.6701 23.325C42.3421 24.1168 41.7867 24.7936 41.0741 25.2697C40.3614 25.7459 39.5236 26 38.6666 26Z" fill="#FFDE76"/>
<path d="M56 26.0001C55.2892 25.996 54.5904 25.817 53.9651 25.4791C53.3397 25.1412 52.8071 24.6546 52.4142 24.0623C52.0213 23.47 51.7801 22.7901 51.7119 22.0826C51.6437 21.375 51.7506 20.6616 52.0232 20.0052C52.2957 19.3487 52.7256 18.7694 53.2749 18.3182C53.8241 17.8671 54.476 17.558 55.1729 17.4182C55.8698 17.2783 56.5904 17.3121 57.2712 17.5165C57.952 17.7209 58.572 18.0896 59.0767 18.5901C59.6878 19.1962 60.1046 19.9706 60.2739 20.8145C60.4432 21.6584 60.3574 22.5336 60.0273 23.3285C59.6972 24.1234 59.1379 24.8021 58.4207 25.2779C57.7034 25.7537 56.8607 26.0051 56 26.0001Z" fill="#B5E08C"/>
<path d="M177.333 147.333C177.34 154.01 175.632 160.577 172.373 166.404C169.114 172.232 164.414 177.125 158.723 180.616C153.031 184.106 146.539 186.077 139.867 186.34C133.196 186.602 126.568 185.148 120.62 182.115C114.672 179.083 109.601 174.574 105.895 169.021C102.188 163.467 99.9696 157.055 99.451 150.399C98.9325 143.742 100.132 137.064 102.934 131.004C105.735 124.943 110.046 119.704 115.453 115.787C121.272 111.572 128.141 109.046 135.305 108.488C142.468 107.93 149.646 109.361 156.047 112.625C162.448 115.888 167.823 120.856 171.579 126.981C175.335 133.105 177.326 140.149 177.333 147.333Z" fill="#9FDBF3"/>
<path d="M177.333 147.333C177.341 155.558 174.73 163.571 169.88 170.213C162.367 175.608 153.182 178.158 143.964 177.406C134.746 176.655 126.094 172.652 119.554 166.112C113.014 159.572 109.011 150.921 108.26 141.703C107.509 132.484 110.058 123.299 115.453 115.787C121.272 111.572 128.141 109.046 135.305 108.488C142.468 107.93 149.646 109.361 156.047 112.625C162.448 115.888 167.823 120.856 171.579 126.981C175.335 133.105 177.327 140.149 177.333 147.333Z" fill="#B2E5FB"/>
</svg>
