<svg width="500" height="100" viewBox="0 0 500 100" fill="none" xmlns="http://www.w3.org/2000/svg">
<path d="M198.504 23.7969C198.504 26.6562 198.48 29.5156 198.434 32.375C198.387 35.2344 198.27 38.0938 198.082 40.9531C197.918 43.7891 197.672 46.625 197.344 49.4609C197.016 52.2969 196.582 55.1328 196.043 57.9688L195.48 60.7812C195.551 60.9453 195.668 61.2148 195.832 61.5898C196.02 61.9414 196.207 62.3281 196.395 62.75C196.582 63.1484 196.746 63.5234 196.887 63.875C197.027 64.2266 197.098 64.4609 197.098 64.5781C197.098 64.8828 196.969 65.1172 196.711 65.2812C196.477 65.4453 196.195 65.5625 195.867 65.6328C195.539 65.7266 195.199 65.7852 194.848 65.8086C194.496 65.832 194.215 65.8438 194.004 65.8438C193.746 65.8438 193.5 65.832 193.266 65.8086C193.031 65.8086 192.809 65.7734 192.598 65.7031C192.059 65.5156 191.695 65.3047 191.508 65.0703C191.32 64.8359 191.098 64.4844 190.84 64.0156C189.855 62.1406 188.988 60.207 188.238 58.2148C187.512 56.1992 186.867 54.1602 186.305 52.0977C185.742 50.0117 185.238 47.9258 184.793 45.8398C184.348 43.7305 183.926 41.6328 183.527 39.5469C182.684 47.2812 181.348 54.9453 179.52 62.5391C179.73 62.9609 179.965 63.4297 180.223 63.9453C180.504 64.4375 180.645 64.9297 180.645 65.4219C180.645 65.75 180.539 66.0078 180.328 66.1953C180.117 66.3828 179.848 66.5117 179.52 66.582C179.215 66.6523 178.887 66.6875 178.535 66.6875C178.207 66.7109 177.926 66.7109 177.691 66.6875C177.621 66.7344 177.551 66.7695 177.48 66.793C177.41 66.8164 177.316 66.8281 177.199 66.8281C176.379 66.8281 175.723 66.582 175.23 66.0898C174.762 65.5977 174.387 65 174.105 64.2969C173.285 62.1641 172.559 59.9023 171.926 57.5117C171.293 55.1211 170.742 52.6953 170.273 50.2344C169.805 47.7734 169.395 45.3242 169.043 42.8867C168.715 40.4258 168.434 38.0469 168.199 35.75C167.871 32.9609 167.555 30.1836 167.25 27.418C166.945 24.6523 166.793 21.8516 166.793 19.0156C166.793 18.5234 166.863 18.1484 167.004 17.8906C167.145 17.6094 167.496 17.4688 168.059 17.4688C168.926 17.4688 169.594 17.6094 170.062 17.8906C170.555 18.1484 170.918 18.5117 171.152 18.9805C171.41 19.4258 171.574 19.9531 171.645 20.5625C171.738 21.1719 171.809 21.8281 171.855 22.5312C172.324 27.7344 172.898 32.9141 173.578 38.0703C174.258 43.2266 175.23 48.3359 176.496 53.3984C177.129 50.1406 177.609 46.8828 177.938 43.625C178.289 40.3438 178.629 37.0625 178.957 33.7812C179.027 32.9141 179.074 32.0352 179.098 31.1445C179.121 30.2539 179.156 29.3633 179.203 28.4727C179.273 27.5586 179.355 26.6562 179.449 25.7656C179.566 24.875 179.754 24.0078 180.012 23.1641C180.223 22.4141 180.562 21.8398 181.031 21.4414C181.5 21.043 182.145 20.8438 182.965 20.8438C183.762 20.8438 184.383 21.0195 184.828 21.3711C185.273 21.7227 185.613 22.168 185.848 22.707C186.105 23.2227 186.281 23.8086 186.375 24.4648C186.469 25.1211 186.551 25.7422 186.621 26.3281C187.184 30.5703 187.91 34.7656 188.801 38.9141C189.715 43.0625 190.793 47.1875 192.035 51.2891C192.504 47.6562 192.797 44.0352 192.914 40.4258C193.031 36.8164 193.09 33.1719 193.09 29.4922C193.09 27.4063 193.066 25.3086 193.02 23.1992C192.996 21.0898 192.855 18.9688 192.598 16.8359C192.598 16.5781 192.574 16.3438 192.527 16.1328C192.48 15.9219 192.457 15.6875 192.457 15.4297C192.457 14.9375 192.609 14.5859 192.914 14.375C193.219 14.1406 193.605 14.0234 194.074 14.0234C194.379 14.0234 194.707 14.0586 195.059 14.1289C195.434 14.1758 195.797 14.2578 196.148 14.375C196.523 14.4688 196.863 14.5977 197.168 14.7617C197.496 14.9258 197.754 15.125 197.941 15.3594C198.035 15.4766 198.105 15.7344 198.152 16.1328C198.223 16.5312 198.281 17.0117 198.328 17.5742C198.375 18.1367 198.41 18.7344 198.434 19.3672C198.457 20 198.469 20.6094 198.469 21.1953C198.492 21.7813 198.504 22.3086 198.504 22.7773C198.504 23.2461 198.504 23.5859 198.504 23.7969ZM217.383 50.5859C217.383 52.625 217.207 54.6641 216.855 56.7031C216.527 58.7188 215.836 60.6289 214.781 62.4336C214.453 62.9727 214.078 63.5 213.656 64.0156C213.234 64.5078 212.766 64.9531 212.25 65.3516C211.758 65.7734 211.207 66.1016 210.598 66.3359C210.012 66.5938 209.391 66.7227 208.734 66.7227C207.703 66.7227 206.801 66.4766 206.027 65.9844C205.277 65.5156 204.621 64.8945 204.059 64.1211C203.52 63.3242 203.062 62.4336 202.688 61.4492C202.336 60.4414 202.055 59.4219 201.844 58.3906C201.656 57.3359 201.516 56.3164 201.422 55.332C201.352 54.3477 201.316 53.4805 201.316 52.7305C201.316 51.8867 201.352 50.9609 201.422 49.9531C201.492 48.9453 201.609 47.9141 201.773 46.8594C201.961 45.8047 202.195 44.7617 202.477 43.7305C202.781 42.6992 203.168 41.7383 203.637 40.8477C204.105 39.9336 204.668 39.125 205.324 38.4219C205.98 37.6953 206.742 37.1211 207.609 36.6992V36.7344C208.359 36.3359 209.109 36.1367 209.859 36.1367C210.328 36.1367 210.691 36.2422 210.949 36.4531C211.207 36.6406 211.324 36.9688 211.301 37.4375C212.59 37.6719 213.633 38.293 214.43 39.3008C215.227 40.3086 215.836 41.4805 216.258 42.8164C216.703 44.1523 216.996 45.5234 217.137 46.9297C217.301 48.3359 217.383 49.5547 217.383 50.5859ZM209.438 41.7969C209.039 41.7969 208.664 41.6445 208.312 41.3398C207.867 42.0195 207.492 42.8047 207.188 43.6953C206.883 44.5625 206.637 45.4648 206.449 46.4023C206.285 47.3164 206.168 48.2422 206.098 49.1797C206.027 50.1172 205.992 50.9961 205.992 51.8164C205.992 52.4961 206.027 53.375 206.098 54.4531C206.168 55.5078 206.297 56.5742 206.484 57.6523C206.695 58.7305 206.977 59.7383 207.328 60.6758C207.703 61.6133 208.184 62.3047 208.77 62.75C209.496 62.3281 210.094 61.6602 210.562 60.7461C211.055 59.8086 211.441 58.7891 211.723 57.6875C212.004 56.5859 212.191 55.4727 212.285 54.3477C212.402 53.2227 212.461 52.2617 212.461 51.4648C212.461 50.8789 212.426 50.1172 212.355 49.1797C212.285 48.2422 212.168 47.293 212.004 46.332C211.84 45.3477 211.605 44.4336 211.301 43.5898C211.02 42.7461 210.656 42.1133 210.211 41.6914C210 41.7617 209.742 41.7969 209.438 41.7969ZM223.219 65.5625C222.867 65.5625 222.48 65.5156 222.059 65.4219C221.66 65.3281 221.273 65.1758 220.898 64.9648C220.547 64.7539 220.242 64.4961 219.984 64.1914C219.75 63.8633 219.633 63.4766 219.633 63.0312C219.633 62.375 219.656 61.7305 219.703 61.0977C219.773 60.4414 219.844 59.7969 219.914 59.1641V59.1992L220.125 56.8438C220.195 56 220.254 55.0742 220.301 54.0664C220.348 53.0586 220.383 52.0391 220.406 51.0078C220.453 49.9531 220.488 48.9219 220.512 47.9141C220.535 46.9062 220.547 45.9805 220.547 45.1367C220.547 44.6445 220.535 44.1523 220.512 43.6602C220.512 43.1445 220.512 42.6289 220.512 42.1133C220.488 41.668 220.477 41.1758 220.477 40.6367C220.477 40.0742 220.477 39.5586 220.477 39.0898C220.477 38.5977 220.535 38.1992 220.652 37.8945C220.793 37.5664 221.168 37.4023 221.777 37.4023C222.316 37.4023 222.879 37.543 223.465 37.8242C224.074 38.1055 224.496 38.5039 224.73 39.0195H224.695C224.812 39.2773 224.895 39.6992 224.941 40.2852C225.012 40.8477 225.059 41.3516 225.082 41.7969C225.48 41.1875 225.926 40.543 226.418 39.8633C226.934 39.1836 227.484 38.5625 228.07 38C228.656 37.4141 229.277 36.9336 229.934 36.5586C230.59 36.1836 231.293 35.9961 232.043 35.9961C233.027 35.9961 233.777 36.2422 234.293 36.7344C234.809 37.2266 235.184 37.8477 235.418 38.5977C235.652 39.3242 235.781 40.1094 235.805 40.9531C235.828 41.7734 235.84 42.5234 235.84 43.2031V43.4844C235.84 43.7656 235.828 44.0469 235.805 44.3281C235.805 44.5859 235.758 44.832 235.664 45.0664C235.594 45.2773 235.453 45.4531 235.242 45.5938C235.055 45.7344 234.785 45.8047 234.434 45.8047C234.059 45.8047 233.66 45.7578 233.238 45.6641C232.816 45.5469 232.418 45.3828 232.043 45.1719C231.691 44.9609 231.387 44.7031 231.129 44.3984C230.871 44.0703 230.73 43.6953 230.707 43.2734C230.707 43.0859 230.707 42.8984 230.707 42.7109C230.707 42.5234 230.719 42.3359 230.742 42.1484C230.742 42.0312 230.742 41.8906 230.742 41.7266C230.766 41.5391 230.777 41.3633 230.777 41.1992C230.027 41.9492 229.359 42.875 228.773 43.9766C228.211 45.0781 227.695 46.25 227.227 47.4922C226.781 48.7344 226.395 49.9883 226.066 51.2539C225.738 52.4961 225.457 53.6211 225.223 54.6289V54.7344C225.152 55.4609 225.105 56.1758 225.082 56.8789C225.059 57.582 225.035 58.3086 225.012 59.0586C224.988 59.9023 224.953 60.7578 224.906 61.625C224.883 62.4922 224.824 63.3359 224.73 64.1562C224.684 64.6016 224.543 64.9414 224.309 65.1758C224.098 65.4336 223.734 65.5625 223.219 65.5625ZM254.578 65.5273C254.578 65.7852 254.438 66.0195 254.156 66.2305C253.875 66.4414 253.547 66.6172 253.172 66.7578C252.82 66.8984 252.457 67.0039 252.082 67.0742C251.707 67.168 251.414 67.2148 251.203 67.2148C250.805 67.2148 250.441 67.1328 250.113 66.9688C249.785 66.8281 249.48 66.6406 249.199 66.4062C248.918 66.1719 248.648 65.9141 248.391 65.6328C248.156 65.3516 247.934 65.0703 247.723 64.7891C246.902 63.7812 246.059 62.6562 245.191 61.4141C244.324 60.1719 243.551 58.9883 242.871 57.8633C242.871 57.957 242.883 58.0742 242.906 58.2148C242.93 58.3555 242.941 58.4727 242.941 58.5664C242.988 59.0586 243.023 59.5508 243.047 60.043C243.094 60.5117 243.152 60.9922 243.223 61.4844C243.246 61.7656 243.27 62.0469 243.293 62.3281C243.34 62.5859 243.387 62.8672 243.434 63.1719C243.48 63.5469 243.527 63.9219 243.574 64.2969C243.621 64.6719 243.645 65.0586 243.645 65.457C243.645 65.9492 243.504 66.2773 243.223 66.4414C242.941 66.6289 242.566 66.7227 242.098 66.7227C241.77 66.7227 241.418 66.6992 241.043 66.6523C240.668 66.6055 240.305 66.5117 239.953 66.3711C239.602 66.2305 239.285 66.043 239.004 65.8086C238.723 65.5742 238.512 65.2695 238.371 64.8945C238.301 64.6133 238.23 64.0859 238.16 63.3125C238.09 62.5391 238.031 61.6836 237.984 60.7461C237.938 59.7852 237.891 58.8242 237.844 57.8633C237.82 56.9023 237.797 56.1055 237.773 55.4727C237.773 55.332 237.762 55.2148 237.738 55.1211C237.738 55.0273 237.738 54.9336 237.738 54.8398C237.551 54.6758 237.387 54.4766 237.246 54.2422C237.105 54.0078 237.035 53.7852 237.035 53.5742C237.035 53.2695 237.094 53 237.211 52.7656C237.328 52.5312 237.457 52.3086 237.598 52.0977C237.457 49.2148 237.387 46.3438 237.387 43.4844C237.387 41.1172 237.41 38.7734 237.457 36.4531C237.527 34.1094 237.586 31.7656 237.633 29.4219L237.738 24.7109C237.762 24.4766 237.773 24.1719 237.773 23.7969C237.773 23.4219 237.773 23.0234 237.773 22.6016C237.773 22.0859 237.773 21.5469 237.773 20.9844C237.773 20.4219 237.785 19.8945 237.809 19.4023C237.832 18.9102 237.855 18.4648 237.879 18.0664C237.902 17.668 237.949 17.375 238.02 17.1875V17.2227C238.113 16.8711 238.242 16.6133 238.406 16.4492C238.57 16.2852 238.852 16.2031 239.25 16.2031C240.234 16.2031 240.996 16.4961 241.535 17.082C242.074 17.668 242.344 18.4531 242.344 19.4375C242.344 21.0078 242.332 22.5781 242.309 24.1484C242.309 25.6953 242.297 27.2539 242.273 28.8242C242.25 30.3945 242.227 31.9648 242.203 33.5352C242.203 35.082 242.203 36.6406 242.203 38.2109C242.203 38.7734 242.203 39.3477 242.203 39.9336C242.227 40.4961 242.238 41.0703 242.238 41.6562C242.262 42.125 242.273 42.6055 242.273 43.0977C242.273 43.5898 242.273 44.1055 242.273 44.6445L246.07 38.5977V38.6328L246.387 38C246.457 37.8828 246.492 37.8008 246.492 37.7539C246.516 37.707 246.539 37.6484 246.562 37.5781C246.609 37.4844 246.691 37.3438 246.809 37.1562C246.949 36.9688 247.184 36.6875 247.512 36.3125C247.629 36.1953 247.77 36.0898 247.934 35.9961C248.098 35.9023 248.309 35.8555 248.566 35.8555C248.824 35.8555 249.082 35.9375 249.34 36.1016C249.621 36.2422 249.867 36.4297 250.078 36.6641C250.289 36.8984 250.465 37.1562 250.605 37.4375C250.746 37.7188 250.816 37.9766 250.816 38.2109C250.816 38.3984 250.711 38.7266 250.5 39.1953C250.289 39.6406 250.008 40.1914 249.656 40.8477C249.328 41.5039 248.953 42.2188 248.531 42.9922C248.109 43.7422 247.664 44.5039 247.195 45.2773C246.75 46.0508 246.316 46.8008 245.895 47.5273C245.473 48.2539 245.098 48.8984 244.77 49.4609L243.855 50.9375C244.395 51.875 245.016 52.918 245.719 54.0664C246.445 55.1914 247.207 56.3281 248.004 57.4766C248.801 58.625 249.609 59.7266 250.43 60.7812C251.273 61.8359 252.094 62.7617 252.891 63.5586L253.242 63.8398C253.523 64.0508 253.816 64.3086 254.121 64.6133C254.426 64.8945 254.578 65.1992 254.578 65.5273ZM291.949 54.5938C291.949 54.9453 291.891 55.2969 291.773 55.6484C291.68 55.9766 291.574 56.3047 291.457 56.6328C290.941 57.9688 290.309 59.2109 289.559 60.3594C288.809 61.4844 287.941 62.457 286.957 63.2773C285.973 64.0977 284.859 64.7422 283.617 65.2109C282.375 65.6797 281.004 65.9141 279.504 65.9141C277.512 65.9141 275.801 65.4922 274.371 64.6484C272.941 63.8047 271.723 62.7148 270.715 61.3789C269.707 60.0195 268.875 58.5078 268.219 56.8438C267.586 55.1797 267.082 53.5156 266.707 51.8516C266.145 49.4375 265.711 47.0234 265.406 44.6094C265.102 42.1719 264.949 39.7344 264.949 37.2969C264.949 35.8672 265.008 34.3906 265.125 32.8672C265.266 31.3438 265.5 29.8438 265.828 28.3672C266.156 26.8672 266.602 25.4258 267.164 24.043C267.727 22.6367 268.43 21.3477 269.273 20.1758C270.117 18.9805 271.113 17.9258 272.262 17.0117C273.434 16.0977 274.793 15.3828 276.34 14.8672C276.902 14.6562 277.488 14.5156 278.098 14.4453C278.707 14.3516 279.316 14.3047 279.926 14.3047C281.145 14.3047 282.305 14.5039 283.406 14.9023C284.508 15.3008 285.469 15.8633 286.289 16.5898C287.133 17.3164 287.789 18.1953 288.258 19.2266C288.75 20.2578 288.996 21.4062 288.996 22.6719C288.996 23.0938 288.902 23.4102 288.715 23.6211C288.527 23.832 288.199 23.9375 287.73 23.9375C286.863 23.9375 286.184 23.7969 285.691 23.5156C285.223 23.2344 284.836 22.8828 284.531 22.4609C284.227 22.0391 283.969 21.582 283.758 21.0898C283.57 20.5977 283.336 20.1406 283.055 19.7188C282.773 19.2969 282.398 18.9453 281.93 18.6641C281.461 18.3828 280.816 18.2422 279.996 18.2422C279.176 18.2422 278.402 18.4063 277.676 18.7344C276.973 19.0391 276.316 19.4492 275.707 19.9648C275.121 20.4805 274.582 21.0664 274.09 21.7227C273.621 22.3555 273.199 23 272.824 23.6562C271.84 25.4844 271.148 27.4414 270.75 29.5273C270.352 31.5898 270.152 33.6641 270.152 35.75C270.152 36.4531 270.176 37.3672 270.223 38.4922C270.293 39.5938 270.387 40.8125 270.504 42.1484C270.645 43.4844 270.832 44.9023 271.066 46.4023C271.301 47.8789 271.582 49.332 271.91 50.7617C272.262 52.1914 272.672 53.5625 273.141 54.875C273.633 56.1875 274.184 57.3359 274.793 58.3203C275.426 59.3047 276.129 60.0898 276.902 60.6758C277.699 61.2617 278.59 61.5547 279.574 61.5547C280.582 61.5547 281.473 61.2969 282.246 60.7812C283.02 60.2422 283.676 59.5742 284.215 58.7773C284.777 57.957 285.234 57.0781 285.586 56.1406C285.961 55.1797 286.254 54.2891 286.465 53.4688C286.535 53.2344 286.594 53.0234 286.641 52.8359C286.711 52.6484 286.793 52.4844 286.887 52.3438C287.004 52.2031 287.145 52.0977 287.309 52.0273C287.473 51.957 287.707 51.9219 288.012 51.9219C288.34 51.9219 288.727 51.9922 289.172 52.1328C289.641 52.25 290.074 52.4258 290.473 52.6602C290.895 52.8945 291.246 53.1758 291.527 53.5039C291.809 53.832 291.949 54.1953 291.949 54.5938ZM308.719 50.5859C308.719 52.625 308.543 54.6641 308.191 56.7031C307.863 58.7188 307.172 60.6289 306.117 62.4336C305.789 62.9727 305.414 63.5 304.992 64.0156C304.57 64.5078 304.102 64.9531 303.586 65.3516C303.094 65.7734 302.543 66.1016 301.934 66.3359C301.348 66.5938 300.727 66.7227 300.07 66.7227C299.039 66.7227 298.137 66.4766 297.363 65.9844C296.613 65.5156 295.957 64.8945 295.395 64.1211C294.855 63.3242 294.398 62.4336 294.023 61.4492C293.672 60.4414 293.391 59.4219 293.18 58.3906C292.992 57.3359 292.852 56.3164 292.758 55.332C292.688 54.3477 292.652 53.4805 292.652 52.7305C292.652 51.8867 292.688 50.9609 292.758 49.9531C292.828 48.9453 292.945 47.9141 293.109 46.8594C293.297 45.8047 293.531 44.7617 293.812 43.7305C294.117 42.6992 294.504 41.7383 294.973 40.8477C295.441 39.9336 296.004 39.125 296.66 38.4219C297.316 37.6953 298.078 37.1211 298.945 36.6992V36.7344C299.695 36.3359 300.445 36.1367 301.195 36.1367C301.664 36.1367 302.027 36.2422 302.285 36.4531C302.543 36.6406 302.66 36.9688 302.637 37.4375C303.926 37.6719 304.969 38.293 305.766 39.3008C306.562 40.3086 307.172 41.4805 307.594 42.8164C308.039 44.1523 308.332 45.5234 308.473 46.9297C308.637 48.3359 308.719 49.5547 308.719 50.5859ZM300.773 41.7969C300.375 41.7969 300 41.6445 299.648 41.3398C299.203 42.0195 298.828 42.8047 298.523 43.6953C298.219 44.5625 297.973 45.4648 297.785 46.4023C297.621 47.3164 297.504 48.2422 297.434 49.1797C297.363 50.1172 297.328 50.9961 297.328 51.8164C297.328 52.4961 297.363 53.375 297.434 54.4531C297.504 55.5078 297.633 56.5742 297.82 57.6523C298.031 58.7305 298.312 59.7383 298.664 60.6758C299.039 61.6133 299.52 62.3047 300.105 62.75C300.832 62.3281 301.43 61.6602 301.898 60.7461C302.391 59.8086 302.777 58.7891 303.059 57.6875C303.34 56.5859 303.527 55.4727 303.621 54.3477C303.738 53.2227 303.797 52.2617 303.797 51.4648C303.797 50.8789 303.762 50.1172 303.691 49.1797C303.621 48.2422 303.504 47.293 303.34 46.332C303.176 45.3477 302.941 44.4336 302.637 43.5898C302.355 42.7461 301.992 42.1133 301.547 41.6914C301.336 41.7617 301.078 41.7969 300.773 41.7969ZM317.086 64.8242C317.086 65.3633 316.922 65.7148 316.594 65.8789C316.289 66.043 315.914 66.125 315.469 66.125C315.07 66.125 314.672 66.0898 314.273 66.0195C313.898 65.9727 313.535 65.8672 313.184 65.7031C312.855 65.5391 312.562 65.3164 312.305 65.0352C312.07 64.7539 311.906 64.3906 311.812 63.9453C311.484 62.5391 311.297 61.168 311.25 59.832C311.203 58.4727 311.18 57.0781 311.18 55.6484V51.3242C311.18 49.3555 311.262 47.3164 311.426 45.207C311.59 43.0742 311.766 41.0234 311.953 39.0547C311.953 38.9844 311.965 38.9023 311.988 38.8086C312.012 38.7148 312.023 38.6445 312.023 38.5977C312.047 38.3398 312.082 38.0586 312.129 37.7539C312.176 37.4492 312.246 37.1797 312.34 36.9453C312.457 36.6875 312.609 36.4766 312.797 36.3125C313.008 36.1484 313.277 36.0664 313.605 36.0664C313.98 36.0664 314.332 36.1484 314.66 36.3125C315.012 36.4531 315.316 36.6523 315.574 36.9102C315.832 37.1445 316.031 37.4375 316.172 37.7891C316.336 38.1406 316.418 38.5039 316.418 38.8789C316.418 39.2773 316.406 39.7227 316.383 40.2148C316.359 40.6836 316.324 41.1289 316.277 41.5508C316.277 41.668 316.266 41.7969 316.242 41.9375C316.242 42.0781 316.23 42.207 316.207 42.3242C316.535 41.668 316.91 40.9883 317.332 40.2852C317.754 39.5586 318.234 38.9023 318.773 38.3164C319.336 37.707 319.945 37.2148 320.602 36.8398C321.281 36.4648 322.031 36.2773 322.852 36.2773C323.531 36.2773 324.094 36.3828 324.539 36.5938C324.984 36.8047 325.336 37.1094 325.594 37.5078C325.875 37.8828 326.062 38.3281 326.156 38.8438C326.273 39.3594 326.332 39.9102 326.332 40.4961C326.332 41.293 326.309 42.1016 326.262 42.9219C326.215 43.7188 326.168 44.5156 326.121 45.3125C326.051 46.1328 325.992 46.9414 325.945 47.7383C325.898 48.5352 325.875 49.3438 325.875 50.1641C325.875 51.1484 325.898 52.168 325.945 53.2227C325.992 54.2539 326.062 55.25 326.156 56.2109C326.25 57.1484 326.355 58.0039 326.473 58.7773C326.59 59.5273 326.707 60.1133 326.824 60.5352C326.918 60.8867 327.012 61.2969 327.105 61.7656C327.223 62.2109 327.328 62.6797 327.422 63.1719C327.539 63.6406 327.633 64.0977 327.703 64.543C327.773 64.9883 327.809 65.3867 327.809 65.7383C327.809 66.2539 327.598 66.582 327.176 66.7227C326.777 66.8633 326.379 66.9336 325.98 66.9336C325.582 66.9336 325.125 66.8984 324.609 66.8281C324.117 66.7812 323.672 66.6523 323.273 66.4414C322.781 66.0898 322.453 65.5977 322.289 64.9648C322.148 64.332 322.055 63.7109 322.008 63.1016L321.902 62.1523C321.832 61.5898 321.738 60.8516 321.621 59.9375C321.504 59.0234 321.387 58.0156 321.27 56.9141C321.176 55.8125 321.094 54.6758 321.023 53.5039C320.953 52.3086 320.918 51.1484 320.918 50.0234C320.918 49.0156 320.953 48.043 321.023 47.1055C321.117 46.168 321.211 45.2188 321.305 44.2578C321.352 43.7656 321.387 43.3672 321.41 43.0625C321.434 42.7578 321.469 42.3594 321.516 41.8672C321.047 42.6172 320.578 43.4961 320.109 44.5039C319.641 45.5117 319.195 46.5664 318.773 47.668C318.352 48.7461 317.965 49.8008 317.613 50.832C317.285 51.8633 317.027 52.7656 316.84 53.5391L316.629 54.3125C316.512 54.6875 316.406 55.0625 316.312 55.4375C316.242 55.8125 316.207 56.1641 316.207 56.4922C316.207 56.9141 316.23 57.4062 316.277 57.9688C316.324 58.5078 316.383 59.0234 316.453 59.5156C316.523 60.1016 316.605 60.6992 316.699 61.3086C316.699 61.3555 316.723 61.5078 316.77 61.7656C316.816 62.0234 316.863 62.3281 316.91 62.6797C316.957 63.0312 316.992 63.4062 317.016 63.8047C317.062 64.1797 317.086 64.5195 317.086 64.8242ZM336.281 64.8242C336.281 65.3633 336.117 65.7148 335.789 65.8789C335.484 66.043 335.109 66.125 334.664 66.125C334.266 66.125 333.867 66.0898 333.469 66.0195C333.094 65.9727 332.73 65.8672 332.379 65.7031C332.051 65.5391 331.758 65.3164 331.5 65.0352C331.266 64.7539 331.102 64.3906 331.008 63.9453C330.68 62.5391 330.492 61.168 330.445 59.832C330.398 58.4727 330.375 57.0781 330.375 55.6484V51.3242C330.375 49.3555 330.457 47.3164 330.621 45.207C330.785 43.0742 330.961 41.0234 331.148 39.0547C331.148 38.9844 331.16 38.9023 331.184 38.8086C331.207 38.7148 331.219 38.6445 331.219 38.5977C331.242 38.3398 331.277 38.0586 331.324 37.7539C331.371 37.4492 331.441 37.1797 331.535 36.9453C331.652 36.6875 331.805 36.4766 331.992 36.3125C332.203 36.1484 332.473 36.0664 332.801 36.0664C333.176 36.0664 333.527 36.1484 333.855 36.3125C334.207 36.4531 334.512 36.6523 334.77 36.9102C335.027 37.1445 335.227 37.4375 335.367 37.7891C335.531 38.1406 335.613 38.5039 335.613 38.8789C335.613 39.2773 335.602 39.7227 335.578 40.2148C335.555 40.6836 335.52 41.1289 335.473 41.5508C335.473 41.668 335.461 41.7969 335.438 41.9375C335.438 42.0781 335.426 42.207 335.402 42.3242C335.73 41.668 336.105 40.9883 336.527 40.2852C336.949 39.5586 337.43 38.9023 337.969 38.3164C338.531 37.707 339.141 37.2148 339.797 36.8398C340.477 36.4648 341.227 36.2773 342.047 36.2773C342.727 36.2773 343.289 36.3828 343.734 36.5938C344.18 36.8047 344.531 37.1094 344.789 37.5078C345.07 37.8828 345.258 38.3281 345.352 38.8438C345.469 39.3594 345.527 39.9102 345.527 40.4961C345.527 41.293 345.504 42.1016 345.457 42.9219C345.41 43.7188 345.363 44.5156 345.316 45.3125C345.246 46.1328 345.188 46.9414 345.141 47.7383C345.094 48.5352 345.07 49.3438 345.07 50.1641C345.07 51.1484 345.094 52.168 345.141 53.2227C345.188 54.2539 345.258 55.25 345.352 56.2109C345.445 57.1484 345.551 58.0039 345.668 58.7773C345.785 59.5273 345.902 60.1133 346.02 60.5352C346.113 60.8867 346.207 61.2969 346.301 61.7656C346.418 62.2109 346.523 62.6797 346.617 63.1719C346.734 63.6406 346.828 64.0977 346.898 64.543C346.969 64.9883 347.004 65.3867 347.004 65.7383C347.004 66.2539 346.793 66.582 346.371 66.7227C345.973 66.8633 345.574 66.9336 345.176 66.9336C344.777 66.9336 344.32 66.8984 343.805 66.8281C343.312 66.7812 342.867 66.6523 342.469 66.4414C341.977 66.0898 341.648 65.5977 341.484 64.9648C341.344 64.332 341.25 63.7109 341.203 63.1016L341.098 62.1523C341.027 61.5898 340.934 60.8516 340.816 59.9375C340.699 59.0234 340.582 58.0156 340.465 56.9141C340.371 55.8125 340.289 54.6758 340.219 53.5039C340.148 52.3086 340.113 51.1484 340.113 50.0234C340.113 49.0156 340.148 48.043 340.219 47.1055C340.312 46.168 340.406 45.2188 340.5 44.2578C340.547 43.7656 340.582 43.3672 340.605 43.0625C340.629 42.7578 340.664 42.3594 340.711 41.8672C340.242 42.6172 339.773 43.4961 339.305 44.5039C338.836 45.5117 338.391 46.5664 337.969 47.668C337.547 48.7461 337.16 49.8008 336.809 50.832C336.48 51.8633 336.223 52.7656 336.035 53.5391L335.824 54.3125C335.707 54.6875 335.602 55.0625 335.508 55.4375C335.438 55.8125 335.402 56.1641 335.402 56.4922C335.402 56.9141 335.426 57.4062 335.473 57.9688C335.52 58.5078 335.578 59.0234 335.648 59.5156C335.719 60.1016 335.801 60.6992 335.895 61.3086C335.895 61.3555 335.918 61.5078 335.965 61.7656C336.012 62.0234 336.059 62.3281 336.105 62.6797C336.152 63.0312 336.188 63.4062 336.211 63.8047C336.258 64.1797 336.281 64.5195 336.281 64.8242ZM363.281 58.5664C363.281 59.2695 363.082 59.9961 362.684 60.7461C362.309 61.4961 361.816 62.1875 361.207 62.8203C360.598 63.4297 359.895 63.9336 359.098 64.332C358.324 64.7305 357.551 64.9297 356.777 64.9297C355.676 64.9297 354.727 64.7188 353.93 64.2969C353.133 63.8516 352.441 63.2656 351.855 62.5391C351.27 61.7891 350.789 60.9453 350.414 60.0078C350.062 59.0703 349.781 58.1094 349.57 57.125C349.359 56.1172 349.207 55.1211 349.113 54.1367C349.043 53.1289 349.008 52.2148 349.008 51.3945C349.008 50.6914 349.043 49.8594 349.113 48.8984C349.207 47.9375 349.348 46.9414 349.535 45.9102C349.746 44.8789 350.027 43.8594 350.379 42.8516C350.73 41.8438 351.164 40.9414 351.68 40.1445C352.219 39.3477 352.852 38.7031 353.578 38.2109C354.328 37.7188 355.184 37.4727 356.145 37.4727C356.895 37.4727 357.562 37.625 358.148 37.9297C358.758 38.2344 359.262 38.6445 359.66 39.1602C360.082 39.6523 360.398 40.2266 360.609 40.8828C360.844 41.5391 360.961 42.2188 360.961 42.9219C360.961 43.8359 360.75 44.832 360.328 45.9102C359.906 46.9883 359.355 48.0312 358.676 49.0391C358.02 50.0469 357.27 50.9609 356.426 51.7812C355.605 52.5781 354.785 53.1875 353.965 53.6094C354.012 54.0312 354.105 54.6523 354.246 55.4727C354.387 56.2695 354.574 57.0664 354.809 57.8633C355.066 58.6602 355.359 59.3516 355.688 59.9375C356.039 60.5234 356.449 60.8164 356.918 60.8164C357.152 60.8164 357.352 60.7461 357.516 60.6055C357.703 60.4648 357.867 60.2773 358.008 60.043C358.148 59.8086 358.266 59.5508 358.359 59.2695C358.477 58.9883 358.582 58.7188 358.676 58.4609L358.887 57.9688C358.934 57.8984 358.957 57.8516 358.957 57.8281C358.98 57.8047 359.004 57.7695 359.027 57.7227C359.191 57.418 359.344 57.1367 359.484 56.8789C359.648 56.6211 359.871 56.3984 360.152 56.2109H360.117C360.211 56.1172 360.305 56.0703 360.398 56.0703C360.516 56.0469 360.621 56.0352 360.715 56.0352C360.973 56.0352 361.254 56.1172 361.559 56.2812C361.863 56.4453 362.145 56.6562 362.402 56.9141C362.66 57.1484 362.871 57.418 363.035 57.7227C363.199 58.0039 363.281 58.2852 363.281 58.5664ZM356.32 43.0625C356.32 42.8281 356.309 42.582 356.285 42.3242C356.262 42.0664 356.203 41.8438 356.109 41.6562C355.781 42.0547 355.488 42.5352 355.23 43.0977C354.996 43.6367 354.797 44.2109 354.633 44.8203C354.469 45.4062 354.328 46.0039 354.211 46.6133C354.117 47.2227 354.047 47.7852 354 48.3008C354.609 47.5742 355.148 46.7539 355.617 45.8398C356.086 44.9023 356.32 43.9766 356.32 43.0625ZM378.82 57.125C378.82 57.6172 378.738 58.1211 378.574 58.6367C378.41 59.1523 378.223 59.6445 378.012 60.1133C377.73 60.793 377.391 61.4609 376.992 62.1172C376.594 62.75 376.137 63.3242 375.621 63.8398C375.105 64.332 374.52 64.7305 373.863 65.0352C373.207 65.3398 372.469 65.4922 371.648 65.4922C370.195 65.4922 368.988 65.1289 368.027 64.4023C367.066 63.6758 366.305 62.7617 365.742 61.6602C365.18 60.5586 364.781 59.3516 364.547 58.0391C364.336 56.7266 364.23 55.4844 364.23 54.3125C364.23 53.4453 364.266 52.4258 364.336 51.2539C364.406 50.0586 364.535 48.8281 364.723 47.5625C364.934 46.2969 365.227 45.043 365.602 43.8008C366 42.5586 366.504 41.457 367.113 40.4961C367.723 39.5117 368.461 38.7148 369.328 38.1055C370.219 37.4961 371.273 37.1914 372.492 37.1914C372.75 37.1914 373.125 37.2383 373.617 37.332C374.109 37.4258 374.59 37.5664 375.059 37.7539C375.551 37.918 375.973 38.1523 376.324 38.457C376.699 38.7383 376.887 39.0664 376.887 39.4414C376.887 39.793 376.723 40.0625 376.395 40.25C376.09 40.4375 375.715 40.5781 375.27 40.6719C374.848 40.7422 374.402 40.7891 373.934 40.8125C373.488 40.8125 373.125 40.8125 372.844 40.8125H372.211C371.555 41.3984 371.016 42.2656 370.594 43.4141C370.172 44.5391 369.844 45.7461 369.609 47.0352C369.375 48.3242 369.211 49.6016 369.117 50.8672C369.023 52.1094 368.977 53.1289 368.977 53.9258C368.977 55.0508 369.059 56.1641 369.223 57.2656C369.41 58.3438 369.773 59.3633 370.312 60.3242C370.43 60.5352 370.594 60.7812 370.805 61.0625C371.039 61.3203 371.297 61.4492 371.578 61.4492C371.789 61.4492 372 61.2734 372.211 60.9219C372.445 60.5703 372.656 60.1602 372.844 59.6914C373.031 59.2227 373.184 58.7656 373.301 58.3203C373.418 57.875 373.5 57.5469 373.547 57.3359C373.57 57.2422 373.582 57.1367 373.582 57.0195C373.582 56.9023 373.582 56.7852 373.582 56.668C373.582 56.457 373.582 56.2578 373.582 56.0703C373.605 55.8594 373.641 55.6953 373.688 55.5781C373.852 55.1797 374.062 54.9102 374.32 54.7695C374.602 54.6289 374.941 54.5586 375.34 54.5586C375.691 54.5586 376.066 54.6055 376.465 54.6992C376.863 54.793 377.238 54.9453 377.59 55.1562C377.941 55.3672 378.234 55.6367 378.469 55.9648C378.703 56.293 378.82 56.6797 378.82 57.125ZM388.172 64.1211C388.172 64.3789 388.113 64.6016 387.996 64.7891C387.879 64.9531 387.727 65.082 387.539 65.1758C387.375 65.2695 387.188 65.3281 386.977 65.3516C386.789 65.3984 386.602 65.4219 386.414 65.4219C386.156 65.4219 385.852 65.3867 385.5 65.3164C385.172 65.2695 384.844 65.1875 384.516 65.0703C384.188 64.9531 383.883 64.8125 383.602 64.6484C383.344 64.4609 383.145 64.2383 383.004 63.9805C382.863 63.7461 382.734 63.3125 382.617 62.6797C382.523 62.0234 382.441 61.2734 382.371 60.4297C382.301 59.5625 382.242 58.6484 382.195 57.6875C382.148 56.7031 382.102 55.7656 382.055 54.875C382.031 53.9844 382.008 53.1875 381.984 52.4844C381.984 51.7578 381.984 51.2188 381.984 50.8672C381.984 49.2266 382.008 47.6445 382.055 46.1211C382.125 44.5742 382.195 42.9922 382.266 41.375C382.148 41.375 382.031 41.3867 381.914 41.4102C381.797 41.4336 381.68 41.4453 381.562 41.4453C381.258 41.4922 380.941 41.5273 380.613 41.5508C380.309 41.5742 379.992 41.5859 379.664 41.5859C379.266 41.5859 378.914 41.5156 378.609 41.375C378.305 41.2344 378.152 40.918 378.152 40.4258C378.152 39.8398 378.281 39.3711 378.539 39.0195C378.797 38.668 379.125 38.3984 379.523 38.2109C379.922 38 380.355 37.8594 380.824 37.7891C381.293 37.6953 381.75 37.625 382.195 37.5781C382.266 37.5781 382.312 37.5781 382.336 37.5781C382.359 37.5547 382.406 37.543 382.477 37.543C382.5 37.2617 382.523 36.9219 382.547 36.5234C382.57 36.1016 382.594 35.6445 382.617 35.1523C382.641 34.3789 382.676 33.5586 382.723 32.6914C382.77 31.8008 382.816 30.957 382.863 30.1602C382.91 29.3398 382.969 28.625 383.039 28.0156C383.109 27.3828 383.18 26.9375 383.25 26.6797C383.367 26.375 383.496 26.1289 383.637 25.9414C383.801 25.7539 384.094 25.6602 384.516 25.6602C385.453 25.6602 386.18 25.9648 386.695 26.5742C387.211 27.1836 387.469 27.9336 387.469 28.8242C387.469 29.8555 387.434 30.8867 387.363 31.918C387.316 32.9492 387.27 33.9922 387.223 35.0469L387.117 36.8398C387.703 36.7695 388.289 36.6641 388.875 36.5234C389.438 36.4062 390 36.3008 390.562 36.207C391.148 36.1133 391.711 36.0664 392.25 36.0664C392.719 36.0664 393.082 36.1953 393.34 36.4531C393.598 36.6875 393.727 37.0391 393.727 37.5078C393.727 38.0234 393.633 38.5273 393.445 39.0195C393.258 39.5117 392.93 39.8867 392.461 40.1445H392.496C392.402 40.1914 392.121 40.2617 391.652 40.3555C391.184 40.4258 390.645 40.4961 390.035 40.5664C389.449 40.6367 388.863 40.707 388.277 40.7773C387.715 40.8477 387.293 40.8945 387.012 40.918H386.977C386.93 42.2305 386.895 43.5312 386.871 44.8203C386.848 46.0859 386.836 47.375 386.836 48.6875C386.836 50.4922 386.883 52.4141 386.977 54.4531C387.094 56.4688 387.281 58.3906 387.539 60.2188L387.82 61.8008C387.914 62.1992 387.996 62.5977 388.066 62.9961C388.137 63.3711 388.172 63.7461 388.172 64.1211Z" fill="black"/>
<path d="M130.703 37.9491C132.111 38.6213 133.337 39.6216 134.279 40.8659C135.22 42.1102 135.849 43.5623 136.112 45.1C136.376 46.6378 136.267 48.2164 135.794 49.7032C135.321 51.19 134.498 52.5416 133.394 53.6444L123.644 63.3944C121.816 65.2229 119.336 66.2501 116.75 66.2501C114.164 66.2501 111.684 65.2229 109.856 63.3944C108.027 61.5659 107 59.0859 107 56.5001C107 53.9142 108.027 51.4342 109.856 49.6057L113.663 45.7989M142.588 44.4512L146.394 40.6444C148.223 38.8159 149.25 36.3359 149.25 33.7501C149.25 31.1642 148.223 28.6842 146.394 26.8557C144.566 25.0272 142.086 24 139.5 24C136.914 24 134.434 25.0272 132.606 26.8557L122.856 36.6057C121.752 37.7086 120.929 39.0601 120.456 40.5469C119.983 42.0337 119.874 43.6123 120.138 45.1501C120.401 46.6878 121.03 48.1399 121.971 49.3842C122.913 50.6285 124.139 51.6288 125.547 52.3011" stroke="black" stroke-width="5" stroke-linecap="round" stroke-linejoin="round"/>
</svg>
